HIERARCHY
ROOT Hips
{
  OFFSET 2.26061 22.2878 23.7974
  CHANNELS 6 Xposition Yposition Zposition Zrotation Xrotation Yrotation
  JOINT LeftUpLeg
  {
    OFFSET 8.64259 1.95398 -2.38835
    CHANNELS 3 Zrotation Xrotation Yrotation
    JOINT LeftLeg
    {
      OFFSET 43.7702 0 0
      CHANNELS 3 Zrotation Xrotation Yrotation
      JOINT LeftFoot
      {
        OFFSET 40.6238 0 0
        CHANNELS 3 Zrotation Xrotation Yrotation
        JOINT LeftToeBase
        {
          OFFSET 12.7242 0 0
          CHANNELS 3 Zrotation Xrotation Yrotation
          End Site
          {
            OFFSET 0 0 0
          }
        }
      }
    }
  }
  JOINT RightUpLeg
  {
    OFFSET -8.2249 1.95398 -2.59336
    CHANNELS 3 Zrotation Xrotation Yrotation
    JOINT RightLeg
    {
      OFFSET 43.5653 0 0
      CHANNELS 3 Zrotation Xrotation Yrotation
      JOINT RightFoot
      {
        OFFSET 40.6238 0 0
        CHANNELS 3 Zrotation Xrotation Yrotation
        JOINT RightToeBase
        {
          OFFSET 12.7242 0 0
          CHANNELS 3 Zrotation Xrotation Yrotation
          End Site
          {
            OFFSET 0 0 0
          }
        }
      }
    }
  }
  JOINT Spine
  {
    OFFSET 0.165834 0.87714 6.61349
    CHANNELS 3 Zrotation Xrotation Yrotation
    JOINT Spine1
    {
      OFFSET 7.38963 1.71661e-005 0
      CHANNELS 3 Zrotation Xrotation Yrotation
      JOINT Spine2
      {
        OFFSET 11.9445 1.14441e-005 0
        CHANNELS 3 Zrotation Xrotation Yrotation
        JOINT Spine3
        {
          OFFSET 14.7254 4.19617e-005 0
          CHANNELS 3 Zrotation Xrotation Yrotation
          JOINT Spine4
          {
            OFFSET 10.9679 0 0
            CHANNELS 3 Zrotation Xrotation Yrotation
            JOINT RightShoulder
            {
              OFFSET 2.46616 -1.6653 3.69651
              CHANNELS 3 Zrotation Xrotation Yrotation
              JOINT RightArm
              {
                OFFSET 13.0012 0 0
                CHANNELS 3 Zrotation Xrotation Yrotation
                JOINT RightForeArm
                {
                  OFFSET 28.7848 1.52588e-005 0
                  CHANNELS 3 Zrotation Xrotation Yrotation
                  JOINT RightHand
                  {
                    OFFSET 26.5688 1.52588e-005 0
                    CHANNELS 3 Zrotation Xrotation Yrotation
                    End Site
                    {
                      OFFSET 0 0 0
                    }
                  }
                }
              }
            }
            JOINT LeftShoulder
            {
              OFFSET 2.38034 -1.29275 -3.7523
              CHANNELS 3 Zrotation Xrotation Yrotation
              JOINT LeftArm
              {
                OFFSET 16.3182 6.10351e-005 0
                CHANNELS 3 Zrotation Xrotation Yrotation
                JOINT LeftForeArm
                {
                  OFFSET 27.0901 0 0
                  CHANNELS 3 Zrotation Xrotation Yrotation
                  JOINT LeftHand
                  {
                    OFFSET 24.5451 1.52588e-005 0
                    CHANNELS 3 Zrotation Xrotation Yrotation
                    End Site
                    {
                      OFFSET 0 0 0
                    }
                  }
                }
              }
            }
            JOINT Neck
            {
              OFFSET 5.0226 -0.0266342 0
              CHANNELS 3 Zrotation Xrotation Yrotation
              JOINT Head
              {
                OFFSET 6.69363 2.86102e-005 0
                CHANNELS 3 Zrotation Xrotation Yrotation
                End Site
                {
                  OFFSET 0 0 0
                }
              }
            }
          }
        }
      }
    }
  }
}
MOTION
Frames:	9
Frame Time:	0.0416667
24.1463 91.799 11.1781 85.9679 -52.67 81.9414 -169.755 30.6514 85.0305 -26.3814 9.81999 -4.98647 58.5124 0.146904 2.72479 35.0239 4.82979 5.94868 176.28 -0.786402 84.5079 -48.9077 -15.0028 -9.77048 46.8655 3.3939 3.11134 48.4963 1.43632 3.60961 1.34437 7.3682 -89.0859 12.1174 3.10461 1.48142 0.449458 3.1668 1.34324 -22.1001 2.51592 2.34623 -2.08743 2.51592 2.34622 93.52 -49.6449 -95.4688 18.8578 -10.3642 -14.131 -17.6113 -14.1688 -74.7697 -13.2641 -0.471641 -1.68403 -97.1356 -54.2648 69.5107 -31.6337 9.08048 28.7527 0.964405 13.5356 -17.5911 5.05509 0.545404 5.42399 8.57572 -1.42291 1.01917 1.108 -1.56033 0.568426 
29.3782 92.2621 14.881 86.8657 -50.7842 82.5956 -169.698 28.2503 83.8915 -30.4058 11.4465 -5.60923 62.3502 3.21087 4.65763 31.0567 1.58242 3.10169 178.389 4.95033 84.5018 -59.1609 -8.35041 -8.30748 38.2629 5.05937 5.20249 37.0639 0.421447 -5.15303 1.10514 7.36421 -89.1211 12.1287 2.61245 1.46548 0.459669 2.67443 1.34903 -22.0831 2.05131 2.18293 -2.07043 2.05132 2.18293 93.6713 -49.7958 -95.2084 20.3173 -10.7477 -8.76914 -15.3833 -16.787 -69.2913 -13.009 -0.435764 -1.97191 -97.745 -53.8042 68.5156 -31.2702 9.34691 26.3186 1.67329 13.159 -19.8561 4.55753 0.492248 5.21055 8.00613 -1.02706 1.61886 1.11651 -1.28684 0.315929 
34.2595 93.293 18.4654 87.9203 -48.2975 83.0966 -170.638 23.8426 82.6402 -30.4031 11.3655 -5.23072 63.578 4.12764 4.32212 30.1619 0.878519 2.57238 178.955 11.5874 84.6134 -66.7526 -0.515439 -6.39906 40.7188 3.27662 3.37754 32.3116 0.351411 -5.22057 0.764827 7.4263 -89.1655 12.0077 1.91438 1.45628 0.337479 1.9766 1.3706 -22.1978 1.38828 1.96424 -2.18518 1.3883 1.96423 94.6328 -51.443 -93.4809 20.2052 -11.0238 -4.50982 -15.4745 -20.1525 -63.6452 -11.5999 -0.418519 -2.15072 -98.8944 -53.216 66.709 -30.4264 10.3202 22.075 1.79354 11.4505 -23.1428 6.9356 0.612596 4.25103 7.37879 -1.0026 1.21472 1.35362 -1.15396 0.934491 
39.0312 94.673 22.0514 88.4545 -45.1292 84.8523 -171.848 18.972 83.131 -28.3791 11.8469 -4.22836 63.8585 4.38162 4.36207 31.6725 2.27147 0.200939 178.683 17.4467 86.4722 -69.4229 2.56763 -4.8212 46.3735 1.35766 1.42025 30.8559 0.388572 -6.27601 0.398497 7.44304 -89.4169 11.9828 1.06741 1.04791 0.31191 1.11249 0.999907 -22.2217 0.703137 1.32023 -2.2091 0.703147 1.32023 95.554 -52.4141 -91.9587 20.237 -10.9373 0.0455546 -13.9724 -23.6965 -58.4873 -12.2687 -0.727696 0.498083 -99.2234 -52.8605 66.1263 -28.3043 11.2126 17.05 2.36137 9.35016 -28.7658 10.2952 0.839672 3.99337 6.52801 -0.660053 1.22879 1.51412 -0.794129 1.26432 
43.7755 95.8556 25.3235 88.5087 -42.1132 85.9151 -173.161 14.7045 83.4785 -26.4977 15.351 -3.12481 63.5373 3.92412 4.59417 32.7796 3.047 2.34586 178.179 22.7737 87.8992 -67.2889 2.96097 -3.86089 51.1903 0.0529735 0.285302 33.7614 0.380467 -6.03004 0.0339649 7.41702 -89.6473 12.0378 0.233993 0.677515 0.366672 0.263605 0.666552 -22.1669 0.019576 0.716513 -2.15428 0.0195634 0.716516 95.8346 -52.9918 -91.4678 21.1578 -10.282 5.22564 -11.9894 -25.7946 -51.9508 -10.2368 -0.701352 0.527265 -99.9175 -52.8718 65.1521 -25.4464 10.9014 12.6641 2.66598 5.81282 -35.8769 13.2642 0.985152 3.43999 5.19811 -0.427495 1.53191 1.80342 -0.572868 1.71538 
48.2279 96.7638 28.9092 88.5293 -38.746 86.2312 -174.051 10.0698 83.8705 -23.998 17.3027 -2.11774 63.0053 3.18303 3.23289 34.3491 4.29315 4.08002 177.299 25.9069 88.6891 -59.8508 2.45819 -3.18248 57.4118 -1.30656 -0.732786 36.2052 0.364023 -5.90751 -0.368885 7.40652 -89.7308 12.0624 -0.606125 0.603537 0.39141 -0.578982 0.629622 -22.1443 -0.759496 0.393466 -2.13167 -0.759509 0.393457 96.3657 -53.8857 -90.5802 21.6716 -8.40352 9.81986 -10.0944 -28.0122 -45.6725 -6.41224 -0.716798 2.05767 -99.6581 -52.2203 65.2915 -22.4816 10.5994 7.4259 2.15028 2.77531 -42.6034 16.4238 1.09918 2.81406 3.78495 -0.263226 0.178928 2.56033 -0.108317 3.06461 
52.4907 97.068 32.5937 88.1409 -35.5511 86.1932 -173.87 6.23967 84.6649 -22.2704 19.1333 -1.87354 62.3285 2.24384 1.99967 37.4501 6.93886 5.65447 176.427 27.1242 89.121 -46.6911 3.5251 -2.34694 61.1236 -2.10108 -1.20728 36.3978 0.370029 -4.78486 -0.706238 7.36385 -89.7912 12.1499 -1.30505 0.561227 0.479482 -1.2791 0.618119 -22.0608 -1.41336 0.142991 -2.04816 -1.41339 0.142978 96.9657 -54.9692 -89.5894 21.438 -6.34921 14.3522 -9.28113 -29.854 -40.7768 -2.90466 -0.69266 3.80877 -99.8581 -51.1637 64.6324 -18.5232 10.7188 1.7067 4.34543 3.50004 -48.4171 16.4047 0.93056 1.79975 2.04836 -0.327543 0.0310899 4.18312 -0.123876 2.82136 
56.8178 96.6483 36.4631 87.3502 -34.175 84.8985 -173.766 2.62399 84.5763 -20.9979 19.0121 -1.74462 63.4382 2.79172 2.39433 38.8138 8.04425 4.02958 176.23 26.0084 88.543 -27.8693 -0.210954 -2.12128 62.766 -2.8515 -1.65823 38.8428 0.334275 -7.2786 -0.87536 7.31995 -89.7349 12.2398 -1.61404 0.709809 0.569663 -1.58125 0.780167 -21.9733 -1.75274 0.191776 -1.96066 -1.75274 0.191768 97.4893 -55.7877 -88.7556 21.0501 -4.27827 18.6278 -9.65939 -31.2368 -37.8401 1.51416 -0.515001 4.91541 -100.082 -50.0161 63.8922 -15.4616 8.64081 -2.92028 6.14479 2.72331 -55.1387 17.5063 1.09712 2.40175 1.0036 -0.489794 -0.491013 5.90566 -0.156623 3.05915 
61.2879 95.4735 40.4534 86.3957 -32.1504 84.2742 -173.351 0.507704 85.4635 -22.8135 22.0508 -1.40672 65.3737 4.92811 5.26648 40.5266 9.35038 2.0622 176.181 24.9484 88.4126 -9.46515 -1.64127 -2.20957 62.6041 -2.57436 -1.50096 44.2476 0.177056 -8.3888 -1.14816 7.28203 -89.7799 12.3184 -2.17723 0.685558 0.649011 -2.14495 0.78075 -21.9008 -2.28256 -0.000814945 -1.88812 -2.28257 -0.000818319 97.6789 -55.3071 -88.5189 20.788 -3.34075 22.1969 -9.9818 -32.7231 -35.8834 3.91152 -0.404833 5.17418 -99.414 -48.6867 64.3759 -13.0632 6.36097 -7.87274 7.98096 2.5519 -59.48 18.2056 1.06521 1.99447 1.93521 -0.385005 -1.199 5.69993 0.0669595 3.41482 
